<?xml version="1.0" encoding="us-ascii" standalone="no"?><svg xmlns="http://www.w3.org/2000/svg" xmlns:xlink="http://www.w3.org/1999/xlink" contentStyleType="text/css" height="717px" preserveAspectRatio="none" style="width:1412px;height:717px;background:#FFFFFF;" version="1.1" viewBox="0 0 1412 717" width="1412px" zoomAndPan="magnify"><defs/><g><text fill="#000000" font-family="sans-serif" font-size="14" font-weight="bold" lengthAdjust="spacing" textLength="198" x="605.5" y="34.5332">Check Username Availability</text><ellipse cx="793.3125" cy="58.6094" fill="#222222" rx="10" ry="10" style="stroke:#222222;stroke-width:1.0;"/><rect fill="#F1F1F1" height="35.0938" rx="12.5" ry="12.5" style="stroke:#181818;stroke-width:0.5;" width="381" x="602.8125" y="88.6094"/><text fill="#000000" font-family="sans-serif" font-size="12" lengthAdjust="spacing" textLength="361" x="612.8125" y="111.0664">Check whether the username reservation session id cookie exists</text><rect fill="#F1F1F1" height="35.0938" rx="12.5" ry="12.5" style="stroke:#181818;stroke-width:0.5;" width="361" x="612.8125" y="192.6211"/><text fill="#000000" font-family="sans-serif" font-size="12" lengthAdjust="spacing" textLength="341" x="622.8125" y="215.0781">Create and set a new username reservation session id cookie</text><polygon fill="#F1F1F1" points="770.3125,143.7031,816.3125,143.7031,828.3125,155.7031,816.3125,167.7031,770.3125,167.7031,758.3125,155.7031,770.3125,143.7031" style="stroke:#181818;stroke-width:0.5;"/><text fill="#000000" font-family="sans-serif" font-size="11" lengthAdjust="spacing" textLength="13" x="797.3125" y="179.1221">No</text><text fill="#000000" font-family="sans-serif" font-size="11" lengthAdjust="spacing" textLength="46" x="770.3125" y="160.2041">Is existed</text><text fill="#000000" font-family="sans-serif" font-size="11" lengthAdjust="spacing" textLength="20" x="828.3125" y="153.2861">Yes</text><polygon fill="#F1F1F1" points="793.3125,247.7148,805.3125,259.7148,793.3125,271.7148,781.3125,259.7148,793.3125,247.7148" style="stroke:#181818;stroke-width:0.5;"/><rect fill="#F1F1F1" height="35.0938" rx="12.5" ry="12.5" style="stroke:#181818;stroke-width:0.5;" width="450" x="568.3125" y="291.7148"/><text fill="#000000" font-family="sans-serif" font-size="12" lengthAdjust="spacing" textLength="430" x="578.3125" y="314.1719">Check whether the username is reserved in Username-Reservation-Collection</text><polygon fill="#F1F1F1" points="765.8125,346.8086,820.8125,346.8086,832.8125,358.8086,820.8125,370.8086,765.8125,370.8086,753.8125,358.8086,765.8125,346.8086" style="stroke:#181818;stroke-width:0.5;"/><text fill="#000000" font-family="sans-serif" font-size="11" lengthAdjust="spacing" textLength="55" x="765.8125" y="363.3096">Is reserved</text><text fill="#000000" font-family="sans-serif" font-size="11" lengthAdjust="spacing" textLength="20" x="733.8125" y="356.3916">Yes</text><text fill="#000000" font-family="sans-serif" font-size="11" lengthAdjust="spacing" textLength="13" x="832.8125" y="356.3916">No</text><rect fill="#F1F1F1" height="35.0938" rx="12.5" ry="12.5" style="stroke:#181818;stroke-width:0.5;" width="487" x="165.875" y="380.8086"/><text fill="#000000" font-family="sans-serif" font-size="12" lengthAdjust="spacing" textLength="467" x="175.875" y="403.2656">Check whether the username is reserved by current username reservation session id</text><polygon fill="#F1F1F1" points="381.875,435.9023,436.875,435.9023,448.875,447.9023,436.875,459.9023,381.875,459.9023,369.875,447.9023,381.875,435.9023" style="stroke:#181818;stroke-width:0.5;"/><text fill="#000000" font-family="sans-serif" font-size="11" lengthAdjust="spacing" textLength="55" x="381.875" y="452.4033">Is reserved</text><text fill="#000000" font-family="sans-serif" font-size="11" lengthAdjust="spacing" textLength="20" x="349.875" y="445.4854">Yes</text><text fill="#000000" font-family="sans-serif" font-size="11" lengthAdjust="spacing" textLength="13" x="448.875" y="445.4854">No</text><rect fill="#F1F1F1" height="35.0938" rx="12.5" ry="12.5" style="stroke:#181818;stroke-width:0.5;" width="320" x="11" y="469.9023"/><text fill="#000000" font-family="sans-serif" font-size="12" lengthAdjust="spacing" textLength="300" x="21" y="492.3594">Update the expiration time of the username reservation</text><rect fill="#F1F1F1" height="35.0938" rx="12.5" ry="12.5" style="stroke:#181818;stroke-width:0.5;" width="202" x="70" y="524.9961"/><text fill="#000000" font-family="sans-serif" font-size="12" lengthAdjust="spacing" textLength="182" x="80" y="547.4531">Return the username is available</text><ellipse cx="171" cy="606.0898" fill="none" rx="11" ry="11" style="stroke:#222222;stroke-width:1.0;"/><ellipse cx="171" cy="606.0898" fill="#222222" rx="6" ry="6" style="stroke:#222222;stroke-width:1.0;"/><rect fill="#F1F1F1" height="35.0938" rx="12.5" ry="12.5" style="stroke:#181818;stroke-width:0.5;" width="242" x="526.75" y="469.9023"/><text fill="#000000" font-family="sans-serif" font-size="12" lengthAdjust="spacing" textLength="222" x="536.75" y="492.3594">Check whether the reservation is expired</text><polygon fill="#F1F1F1" points="624.25,524.9961,671.25,524.9961,683.25,536.9961,671.25,548.9961,624.25,548.9961,612.25,536.9961,624.25,524.9961" style="stroke:#181818;stroke-width:0.5;"/><text fill="#000000" font-family="sans-serif" font-size="11" lengthAdjust="spacing" textLength="47" x="624.25" y="541.4971">Is expired</text><text fill="#000000" font-family="sans-serif" font-size="11" lengthAdjust="spacing" textLength="20" x="592.25" y="534.5791">Yes</text><text fill="#000000" font-family="sans-serif" font-size="11" lengthAdjust="spacing" textLength="13" x="683.25" y="534.5791">No</text><rect fill="#F1F1F1" height="35.0938" rx="12.5" ry="12.5" style="stroke:#181818;stroke-width:0.5;" width="295" x="361" y="558.9961"/><text fill="#000000" font-family="sans-serif" font-size="12" lengthAdjust="spacing" textLength="275" x="371" y="581.4531">Replace the username reservation with a new one</text><rect fill="#F1F1F1" height="35.0938" rx="12.5" ry="12.5" style="stroke:#181818;stroke-width:0.5;" width="202" x="407.5" y="629.0898"/><text fill="#000000" font-family="sans-serif" font-size="12" lengthAdjust="spacing" textLength="182" x="417.5" y="651.5469">Return the username is available</text><ellipse cx="508.5" cy="695.1836" fill="none" rx="11" ry="11" style="stroke:#222222;stroke-width:1.0;"/><ellipse cx="508.5" cy="695.1836" fill="#222222" rx="6" ry="6" style="stroke:#222222;stroke-width:1.0;"/><rect fill="#F1F1F1" height="35.0938" rx="12.5" ry="12.5" style="stroke:#181818;stroke-width:0.5;" width="222" x="676" y="558.9961"/><text fill="#000000" font-family="sans-serif" font-size="12" lengthAdjust="spacing" textLength="202" x="686" y="581.4531">Return the username is not available</text><ellipse cx="787" cy="640.0898" fill="none" rx="11" ry="11" style="stroke:#222222;stroke-width:1.0;"/><ellipse cx="787" cy="640.0898" fill="#222222" rx="6" ry="6" style="stroke:#222222;stroke-width:1.0;"/><rect fill="#F1F1F1" height="35.0938" rx="12.5" ry="12.5" style="stroke:#181818;stroke-width:0.5;" width="377" x="988.75" y="380.8086"/><text fill="#000000" font-family="sans-serif" font-size="12" lengthAdjust="spacing" textLength="357" x="998.75" y="403.2656">Check whether the username is taken by the consumer collection</text><polygon fill="#F1F1F1" points="1158.75,435.9023,1195.75,435.9023,1207.75,447.9023,1195.75,459.9023,1158.75,459.9023,1146.75,447.9023,1158.75,435.9023" style="stroke:#181818;stroke-width:0.5;"/><text fill="#000000" font-family="sans-serif" font-size="11" lengthAdjust="spacing" textLength="37" x="1158.75" y="452.4033">Is taken</text><text fill="#000000" font-family="sans-serif" font-size="11" lengthAdjust="spacing" textLength="20" x="1126.75" y="445.4854">Yes</text><text fill="#000000" font-family="sans-serif" font-size="11" lengthAdjust="spacing" textLength="13" x="1207.75" y="445.4854">No</text><rect fill="#F1F1F1" height="35.0938" rx="12.5" ry="12.5" style="stroke:#181818;stroke-width:0.5;" width="222" x="948" y="469.9023"/><text fill="#000000" font-family="sans-serif" font-size="12" lengthAdjust="spacing" textLength="202" x="958" y="492.3594">Return the username is not available</text><ellipse cx="1059" cy="535.9961" fill="none" rx="11" ry="11" style="stroke:#222222;stroke-width:1.0;"/><ellipse cx="1059" cy="535.9961" fill="#222222" rx="6" ry="6" style="stroke:#222222;stroke-width:1.0;"/><rect fill="#F1F1F1" height="35.0938" rx="12.5" ry="12.5" style="stroke:#181818;stroke-width:0.5;" width="211" x="1190" y="469.9023"/><text fill="#000000" font-family="sans-serif" font-size="12" lengthAdjust="spacing" textLength="191" x="1200" y="492.3594">Insert a new username reservation</text><rect fill="#F1F1F1" height="35.0938" rx="12.5" ry="12.5" style="stroke:#181818;stroke-width:0.5;" width="202" x="1194.5" y="524.9961"/><text fill="#000000" font-family="sans-serif" font-size="12" lengthAdjust="spacing" textLength="182" x="1204.5" y="547.4531">Return the username is available</text><ellipse cx="1295.5" cy="606.0898" fill="none" rx="11" ry="11" style="stroke:#222222;stroke-width:1.0;"/><ellipse cx="1295.5" cy="606.0898" fill="#222222" rx="6" ry="6" style="stroke:#222222;stroke-width:1.0;"/><line style="stroke:#181818;stroke-width:1.0;" x1="793.3125" x2="793.3125" y1="68.6094" y2="88.6094"/><polygon fill="#181818" points="789.3125,78.6094,793.3125,88.6094,797.3125,78.6094,793.3125,82.6094" style="stroke:#181818;stroke-width:1.0;"/><line style="stroke:#181818;stroke-width:1.0;" x1="793.3125" x2="793.3125" y1="167.7031" y2="192.6211"/><polygon fill="#181818" points="789.3125,182.6211,793.3125,192.6211,797.3125,182.6211,793.3125,186.6211" style="stroke:#181818;stroke-width:1.0;"/><line style="stroke:#181818;stroke-width:1.0;" x1="828.3125" x2="983.8125" y1="155.7031" y2="155.7031"/><polygon fill="#181818" points="979.8125,200.168,983.8125,210.168,987.8125,200.168,983.8125,204.168" style="stroke:#181818;stroke-width:1.0;"/><line style="stroke:#181818;stroke-width:1.0;" x1="983.8125" x2="983.8125" y1="155.7031" y2="259.7148"/><line style="stroke:#181818;stroke-width:1.0;" x1="983.8125" x2="805.3125" y1="259.7148" y2="259.7148"/><polygon fill="#181818" points="815.3125,255.7148,805.3125,259.7148,815.3125,263.7148,811.3125,259.7148" style="stroke:#181818;stroke-width:1.0;"/><line style="stroke:#181818;stroke-width:1.0;" x1="793.3125" x2="793.3125" y1="227.7148" y2="247.7148"/><polygon fill="#181818" points="789.3125,237.7148,793.3125,247.7148,797.3125,237.7148,793.3125,241.7148" style="stroke:#181818;stroke-width:1.0;"/><line style="stroke:#181818;stroke-width:1.0;" x1="793.3125" x2="793.3125" y1="123.7031" y2="143.7031"/><polygon fill="#181818" points="789.3125,133.7031,793.3125,143.7031,797.3125,133.7031,793.3125,137.7031" style="stroke:#181818;stroke-width:1.0;"/><line style="stroke:#181818;stroke-width:1.0;" x1="793.3125" x2="793.3125" y1="271.7148" y2="291.7148"/><polygon fill="#181818" points="789.3125,281.7148,793.3125,291.7148,797.3125,281.7148,793.3125,285.7148" style="stroke:#181818;stroke-width:1.0;"/><line style="stroke:#181818;stroke-width:1.0;" x1="171" x2="171" y1="504.9961" y2="524.9961"/><polygon fill="#181818" points="167,514.9961,171,524.9961,175,514.9961,171,518.9961" style="stroke:#181818;stroke-width:1.0;"/><line style="stroke:#181818;stroke-width:1.0;" x1="171" x2="171" y1="560.0898" y2="595.0898"/><polygon fill="#181818" points="167,585.0898,171,595.0898,175,585.0898,171,589.0898" style="stroke:#181818;stroke-width:1.0;"/><line style="stroke:#181818;stroke-width:1.0;" x1="508.5" x2="508.5" y1="594.0898" y2="629.0898"/><polygon fill="#181818" points="504.5,619.0898,508.5,629.0898,512.5,619.0898,508.5,623.0898" style="stroke:#181818;stroke-width:1.0;"/><line style="stroke:#181818;stroke-width:1.0;" x1="508.5" x2="508.5" y1="664.1836" y2="684.1836"/><polygon fill="#181818" points="504.5,674.1836,508.5,684.1836,512.5,674.1836,508.5,678.1836" style="stroke:#181818;stroke-width:1.0;"/><line style="stroke:#181818;stroke-width:1.0;" x1="787" x2="787" y1="594.0898" y2="629.0898"/><polygon fill="#181818" points="783,619.0898,787,629.0898,791,619.0898,787,623.0898" style="stroke:#181818;stroke-width:1.0;"/><line style="stroke:#181818;stroke-width:1.0;" x1="612.25" x2="508.5" y1="536.9961" y2="536.9961"/><line style="stroke:#181818;stroke-width:1.0;" x1="508.5" x2="508.5" y1="536.9961" y2="558.9961"/><polygon fill="#181818" points="504.5,548.9961,508.5,558.9961,512.5,548.9961,508.5,552.9961" style="stroke:#181818;stroke-width:1.0;"/><line style="stroke:#181818;stroke-width:1.0;" x1="683.25" x2="787" y1="536.9961" y2="536.9961"/><line style="stroke:#181818;stroke-width:1.0;" x1="787" x2="787" y1="536.9961" y2="558.9961"/><polygon fill="#181818" points="783,548.9961,787,558.9961,791,548.9961,787,552.9961" style="stroke:#181818;stroke-width:1.0;"/><line style="stroke:#181818;stroke-width:1.0;" x1="647.75" x2="647.75" y1="504.9961" y2="524.9961"/><polygon fill="#181818" points="643.75,514.9961,647.75,524.9961,651.75,514.9961,647.75,518.9961" style="stroke:#181818;stroke-width:1.0;"/><line style="stroke:#181818;stroke-width:1.0;" x1="369.875" x2="171" y1="447.9023" y2="447.9023"/><line style="stroke:#181818;stroke-width:1.0;" x1="171" x2="171" y1="447.9023" y2="469.9023"/><polygon fill="#181818" points="167,459.9023,171,469.9023,175,459.9023,171,463.9023" style="stroke:#181818;stroke-width:1.0;"/><line style="stroke:#181818;stroke-width:1.0;" x1="448.875" x2="647.75" y1="447.9023" y2="447.9023"/><line style="stroke:#181818;stroke-width:1.0;" x1="647.75" x2="647.75" y1="447.9023" y2="469.9023"/><polygon fill="#181818" points="643.75,459.9023,647.75,469.9023,651.75,459.9023,647.75,463.9023" style="stroke:#181818;stroke-width:1.0;"/><line style="stroke:#181818;stroke-width:1.0;" x1="409.375" x2="409.375" y1="415.9023" y2="435.9023"/><polygon fill="#181818" points="405.375,425.9023,409.375,435.9023,413.375,425.9023,409.375,429.9023" style="stroke:#181818;stroke-width:1.0;"/><line style="stroke:#181818;stroke-width:1.0;" x1="1059" x2="1059" y1="504.9961" y2="524.9961"/><polygon fill="#181818" points="1055,514.9961,1059,524.9961,1063,514.9961,1059,518.9961" style="stroke:#181818;stroke-width:1.0;"/><line style="stroke:#181818;stroke-width:1.0;" x1="1295.5" x2="1295.5" y1="504.9961" y2="524.9961"/><polygon fill="#181818" points="1291.5,514.9961,1295.5,524.9961,1299.5,514.9961,1295.5,518.9961" style="stroke:#181818;stroke-width:1.0;"/><line style="stroke:#181818;stroke-width:1.0;" x1="1295.5" x2="1295.5" y1="560.0898" y2="595.0898"/><polygon fill="#181818" points="1291.5,585.0898,1295.5,595.0898,1299.5,585.0898,1295.5,589.0898" style="stroke:#181818;stroke-width:1.0;"/><line style="stroke:#181818;stroke-width:1.0;" x1="1146.75" x2="1059" y1="447.9023" y2="447.9023"/><line style="stroke:#181818;stroke-width:1.0;" x1="1059" x2="1059" y1="447.9023" y2="469.9023"/><polygon fill="#181818" points="1055,459.9023,1059,469.9023,1063,459.9023,1059,463.9023" style="stroke:#181818;stroke-width:1.0;"/><line style="stroke:#181818;stroke-width:1.0;" x1="1207.75" x2="1295.5" y1="447.9023" y2="447.9023"/><line style="stroke:#181818;stroke-width:1.0;" x1="1295.5" x2="1295.5" y1="447.9023" y2="469.9023"/><polygon fill="#181818" points="1291.5,459.9023,1295.5,469.9023,1299.5,459.9023,1295.5,463.9023" style="stroke:#181818;stroke-width:1.0;"/><line style="stroke:#181818;stroke-width:1.0;" x1="1177.25" x2="1177.25" y1="415.9023" y2="435.9023"/><polygon fill="#181818" points="1173.25,425.9023,1177.25,435.9023,1181.25,425.9023,1177.25,429.9023" style="stroke:#181818;stroke-width:1.0;"/><line style="stroke:#181818;stroke-width:1.0;" x1="753.8125" x2="409.375" y1="358.8086" y2="358.8086"/><line style="stroke:#181818;stroke-width:1.0;" x1="409.375" x2="409.375" y1="358.8086" y2="380.8086"/><polygon fill="#181818" points="405.375,370.8086,409.375,380.8086,413.375,370.8086,409.375,374.8086" style="stroke:#181818;stroke-width:1.0;"/><line style="stroke:#181818;stroke-width:1.0;" x1="832.8125" x2="1177.25" y1="358.8086" y2="358.8086"/><line style="stroke:#181818;stroke-width:1.0;" x1="1177.25" x2="1177.25" y1="358.8086" y2="380.8086"/><polygon fill="#181818" points="1173.25,370.8086,1177.25,380.8086,1181.25,370.8086,1177.25,374.8086" style="stroke:#181818;stroke-width:1.0;"/><line style="stroke:#181818;stroke-width:1.0;" x1="793.3125" x2="793.3125" y1="326.8086" y2="346.8086"/><polygon fill="#181818" points="789.3125,336.8086,793.3125,346.8086,797.3125,336.8086,793.3125,340.8086" style="stroke:#181818;stroke-width:1.0;"/><!--SRC=[dLExai8m3Epz5IgXu0T8nL3HNC4CnPN65XCDnivO2e-_Fpk6mF78PQwndKHQxNetGk8GbZMQFMmOezS7XCLHazDRSYGNfLXq5ANcfUXKezGO8ItGtXeYfjDH2mKFZCnv9micX3qXu9bOk5AqWycAooFQQORmCFb6dYfqZ33v2bC5C5z6r8AWlKrW0XeydaREgXHwIxjXjiHN4BH0lfSzMz-HPylW79fyx7dVUduHptJ7JTfUmBGnefU_j5G9TNXcchffRBwaF0xF3SK28fHGm-wZErLfNgEqqRzmrSLtXwMC9JJfyEZDMxcFAeWB7RG5e_UyU_SYe-FIE6tmSw1E9FKr1C5VgOtMqAjurl4Hm0SP0kdYTTkVSZiO1D7x93sb87ymmNDxI5Nc8MTtsxlQLy_7CtvltSgdhg4Vwb_nw6wYMty0]--></g></svg>